<?xml version="1.0" standalone="no"?>
<!DOCTYPE svg PUBLIC "-//W3C//DTD SVG 20010904//EN"
 "http://www.w3.org/TR/2001/REC-SVG-20010904/DTD/svg10.dtd">
<svg version="1.0" xmlns="http://www.w3.org/2000/svg"
 width="495.000000pt" height="525.000000pt" viewBox="0 0 495.000000 525.000000"
 preserveAspectRatio="xMidYMid meet">

<g transform="translate(0.000000,525.000000) scale(0.100000,-0.100000)"
fill="#000000" stroke="none">
<path d="M1990 4959 c-495 -54 -926 -226 -1248 -499 -89 -75 -374 -379 -449
-478 -109 -144 -158 -273 -134 -352 39 -129 165 -168 316 -97 40 19 145 85
233 146 87 61 201 131 253 155 231 109 589 207 879 241 315 37 526 3 735 -120
199 -117 327 -259 375 -412 17 -57 18 -57 84 -84 139 -56 291 -163 383 -270
128 -146 226 -382 240 -573 6 -75 5 -79 -13 -72 -82 32 -301 100 -404 125
-305 74 -547 86 -744 35 -224 -58 -592 -328 -763 -560 -270 -368 -304 -788
-97 -1209 258 -524 766 -818 1327 -767 797 72 1528 743 1753 1607 60 230 78
377 78 650 0 409 -54 687 -199 1025 -94 221 -251 482 -401 670 -150 188 -393
401 -595 524 -255 154 -563 259 -894 302 -142 19 -589 27 -715 13z"/>
<path d="M1825 3467 c30 -20 490 -266 560 -298 73 -35 111 -36 156 -6 45 30
69 80 69 145 0 63 -20 109 -58 137 -33 24 -161 33 -507 34 -202 1 -236 -1
-220 -12z"/>
</g>
</svg>
